<mxfile host="app.diagrams.net" agent="Mozilla/5.0 (Windows NT 10.0; Win64; x64) AppleWebKit/537.36 (KHTML, like Gecko) Chrome/136.0.0.0 Safari/537.36" version="27.0.9">
  <diagram name="PÃ¡gina-1" id="gTWnA1Sg_lMdiMgR3odc">
    <mxGraphModel dx="1042" dy="562" grid="1" gridSize="10" guides="1" tooltips="1" connect="1" arrows="1" fold="1" page="1" pageScale="1" pageWidth="827" pageHeight="1169" math="0" shadow="0">
      <root>
        <mxCell id="0" />
        <mxCell id="1" parent="0" />
        <mxCell id="-3U6zcJLe4eovg1wgORC-1" value="" style="ellipse;html=1;shape=endState;fillColor=#000000;strokeColor=#ff0000;" parent="1" vertex="1">
          <mxGeometry x="50" y="420" width="50" height="50" as="geometry" />
        </mxCell>
        <mxCell id="-3U6zcJLe4eovg1wgORC-5" style="edgeStyle=orthogonalEdgeStyle;rounded=0;orthogonalLoop=1;jettySize=auto;html=1;entryX=0;entryY=0.5;entryDx=0;entryDy=0;" parent="1" source="-3U6zcJLe4eovg1wgORC-2" target="-3U6zcJLe4eovg1wgORC-4" edge="1">
          <mxGeometry relative="1" as="geometry" />
        </mxCell>
        <mxCell id="-3U6zcJLe4eovg1wgORC-2" value="" style="strokeWidth=2;html=1;shape=mxgraph.flowchart.start_2;whiteSpace=wrap;" parent="1" vertex="1">
          <mxGeometry x="80" y="110" width="50" height="50" as="geometry" />
        </mxCell>
        <mxCell id="-3U6zcJLe4eovg1wgORC-19" style="edgeStyle=orthogonalEdgeStyle;rounded=0;orthogonalLoop=1;jettySize=auto;html=1;entryX=0.5;entryY=0;entryDx=0;entryDy=0;" parent="1" source="-3U6zcJLe4eovg1wgORC-4" target="-3U6zcJLe4eovg1wgORC-18" edge="1">
          <mxGeometry relative="1" as="geometry" />
        </mxCell>
        <mxCell id="-3U6zcJLe4eovg1wgORC-4" value="Login" style="rounded=0;whiteSpace=wrap;html=1;" parent="1" vertex="1">
          <mxGeometry x="215" y="120" width="105" height="30" as="geometry" />
        </mxCell>
        <mxCell id="-3U6zcJLe4eovg1wgORC-6" value="" style="endArrow=none;html=1;rounded=0;" parent="1" edge="1">
          <mxGeometry width="50" height="50" relative="1" as="geometry">
            <mxPoint x="260" y="310" as="sourcePoint" />
            <mxPoint x="500" y="310" as="targetPoint" />
          </mxGeometry>
        </mxCell>
        <mxCell id="-3U6zcJLe4eovg1wgORC-10" value="" style="endArrow=classic;html=1;rounded=0;" parent="1" edge="1">
          <mxGeometry width="50" height="50" relative="1" as="geometry">
            <mxPoint x="92.5" y="225" as="sourcePoint" />
            <mxPoint x="92.5" y="305" as="targetPoint" />
          </mxGeometry>
        </mxCell>
        <mxCell id="-3U6zcJLe4eovg1wgORC-11" value="" style="endArrow=classic;html=1;rounded=0;" parent="1" edge="1">
          <mxGeometry width="50" height="50" relative="1" as="geometry">
            <mxPoint x="365" y="310" as="sourcePoint" />
            <mxPoint x="365" y="390" as="targetPoint" />
          </mxGeometry>
        </mxCell>
        <mxCell id="-3U6zcJLe4eovg1wgORC-12" value="" style="endArrow=classic;html=1;rounded=0;" parent="1" edge="1">
          <mxGeometry width="50" height="50" relative="1" as="geometry">
            <mxPoint x="267" y="310" as="sourcePoint" />
            <mxPoint x="267" y="350" as="targetPoint" />
          </mxGeometry>
        </mxCell>
        <mxCell id="-3U6zcJLe4eovg1wgORC-13" value="Gestionar Usuarios" style="rounded=0;whiteSpace=wrap;html=1;" parent="1" vertex="1">
          <mxGeometry x="42.5" y="305" width="147.5" height="30" as="geometry" />
        </mxCell>
        <mxCell id="-3U6zcJLe4eovg1wgORC-14" value="Fichaje" style="rounded=0;whiteSpace=wrap;html=1;" parent="1" vertex="1">
          <mxGeometry x="215" y="350" width="105" height="30" as="geometry" />
        </mxCell>
        <mxCell id="-3U6zcJLe4eovg1wgORC-15" value="Nominas" style="rounded=0;whiteSpace=wrap;html=1;" parent="1" vertex="1">
          <mxGeometry x="310" y="390" width="105" height="30" as="geometry" />
        </mxCell>
        <mxCell id="-3U6zcJLe4eovg1wgORC-16" value="" style="endArrow=classic;html=1;rounded=0;" parent="1" edge="1">
          <mxGeometry width="50" height="50" relative="1" as="geometry">
            <mxPoint x="496" y="310" as="sourcePoint" />
            <mxPoint x="496" y="350" as="targetPoint" />
          </mxGeometry>
        </mxCell>
        <mxCell id="-3U6zcJLe4eovg1wgORC-17" value="Vacaciones" style="rounded=0;whiteSpace=wrap;html=1;" parent="1" vertex="1">
          <mxGeometry x="450" y="350" width="105" height="30" as="geometry" />
        </mxCell>
        <mxCell id="-3U6zcJLe4eovg1wgORC-24" style="edgeStyle=orthogonalEdgeStyle;rounded=0;orthogonalLoop=1;jettySize=auto;html=1;entryX=1;entryY=0.5;entryDx=0;entryDy=0;" parent="1" source="-3U6zcJLe4eovg1wgORC-18" target="-3U6zcJLe4eovg1wgORC-21" edge="1">
          <mxGeometry relative="1" as="geometry" />
        </mxCell>
        <mxCell id="-3U6zcJLe4eovg1wgORC-25" style="edgeStyle=orthogonalEdgeStyle;rounded=0;orthogonalLoop=1;jettySize=auto;html=1;entryX=0;entryY=0.5;entryDx=0;entryDy=0;" parent="1" source="-3U6zcJLe4eovg1wgORC-18" target="-3U6zcJLe4eovg1wgORC-20" edge="1">
          <mxGeometry relative="1" as="geometry" />
        </mxCell>
        <mxCell id="-3U6zcJLe4eovg1wgORC-18" value="Administrador ?" style="rhombus;whiteSpace=wrap;html=1;" parent="1" vertex="1">
          <mxGeometry x="207.5" y="190" width="120" height="40" as="geometry" />
        </mxCell>
        <mxCell id="-3U6zcJLe4eovg1wgORC-22" style="edgeStyle=orthogonalEdgeStyle;rounded=0;orthogonalLoop=1;jettySize=auto;html=1;" parent="1" source="-3U6zcJLe4eovg1wgORC-20" edge="1">
          <mxGeometry relative="1" as="geometry">
            <mxPoint x="452.5" y="310" as="targetPoint" />
          </mxGeometry>
        </mxCell>
        <mxCell id="-3U6zcJLe4eovg1wgORC-20" value="No" style="rounded=0;whiteSpace=wrap;html=1;" parent="1" vertex="1">
          <mxGeometry x="400" y="195" width="105" height="30" as="geometry" />
        </mxCell>
        <mxCell id="-3U6zcJLe4eovg1wgORC-26" style="edgeStyle=orthogonalEdgeStyle;rounded=0;orthogonalLoop=1;jettySize=auto;html=1;" parent="1" source="-3U6zcJLe4eovg1wgORC-21" edge="1">
          <mxGeometry relative="1" as="geometry">
            <mxPoint x="340" y="310" as="targetPoint" />
            <Array as="points">
              <mxPoint x="95" y="260" />
              <mxPoint x="340" y="260" />
            </Array>
          </mxGeometry>
        </mxCell>
        <mxCell id="-3U6zcJLe4eovg1wgORC-21" value="Si" style="rounded=0;whiteSpace=wrap;html=1;" parent="1" vertex="1">
          <mxGeometry x="42.5" y="195" width="105" height="30" as="geometry" />
        </mxCell>
        <mxCell id="-3U6zcJLe4eovg1wgORC-29" style="edgeStyle=orthogonalEdgeStyle;rounded=0;orthogonalLoop=1;jettySize=auto;html=1;entryX=1;entryY=0.5;entryDx=0;entryDy=0;" parent="1" source="-3U6zcJLe4eovg1wgORC-28" target="-3U6zcJLe4eovg1wgORC-1" edge="1">
          <mxGeometry relative="1" as="geometry" />
        </mxCell>
        <mxCell id="-3U6zcJLe4eovg1wgORC-28" value="Logout" style="rounded=0;whiteSpace=wrap;html=1;" parent="1" vertex="1">
          <mxGeometry x="170" y="430" width="105" height="30" as="geometry" />
        </mxCell>
      </root>
    </mxGraphModel>
  </diagram>
</mxfile>
